<svg xmlns="http://www.w3.org/2000/svg" viewBox="0 0 512 512">
  <rect width="512" height="512" fill="#0b2239" />
  <!-- Content kept within the inner ~80% safe zone per the maskable icon spec
       (https://w3c.github.io/manifest/#icon-masks) so platform masks don't clip it. -->
  <g transform="translate(256 256) scale(0.8) translate(-256 -256)">
    <g fill="#c9a227">
      <circle cx="256" cy="216" r="108" />
      <path d="M256 324c-48 0-88 28-104 68 20 24 60 40 104 40s84-16 104-40c-16-40-56-68-104-68z" />
    </g>
    <g fill="#0b2239">
      <circle cx="212" cy="204" r="26" />
      <circle cx="300" cy="204" r="26" />
      <path d="M222 264c10 14 26 22 34 22s24-8 34-22c-10 20-20 30-34 30s-24-10-34-30z" />
    </g>
    <g stroke="#c9a227" stroke-width="18" stroke-linecap="round">
      <path d="M116 372l280 96" />
      <path d="M396 372l-280 96" />
    </g>
  </g>
</svg>
